<svg xmlns="http://www.w3.org/2000/svg" enable-background="new 0 0 24 24" viewBox="0 0 24 24" id="exam">
  <g>
    <path fill="#d0ccff" d="M18,20h-3c-1.1,0-2-0.9-2-2V7c0-1.7-1.3-3-3-3h3c1.7,0,3,1.3,3,3v11C16,19.1,16.9,20,18,20z"></path>
    <path fill="none" stroke="#6f51f8" stroke-linecap="round" stroke-linejoin="round" stroke-miterlimit="10" stroke-width="2" d="M18,20H7c-1.7,0-3-1.3-3-3V7c0-1.7,1.3-3,3-3h6c1.7,0,3,1.3,3,3v11C16,19.1,16.9,20,18,20z"></path>
    <path fill="#d0ccff" d="M20,14l0,3.9c0,1-0.7,1.9-1.7,2.1c-1.2,0.2-2.3-0.8-2.3-2v-6h2C19.1,12,20,12.9,20,14z"></path>
    <path fill="none" stroke="#6f51f8" stroke-linecap="round" stroke-linejoin="round" stroke-miterlimit="10" stroke-width="2" d="M20,14l0,3.9c0,1-0.7,1.9-1.7,2.1c-1.2,0.2-2.3-0.8-2.3-2v-6h2C19.1,12,20,12.9,20,14z"></path>
    <line x1="8" x2="12" y1="8" y2="8" fill="none" stroke="#6f51f8" stroke-linecap="round" stroke-linejoin="round" stroke-miterlimit="10" stroke-width="2"></line>
    <line x1="8" x2="12" y1="12" y2="12" fill="none" stroke="#6f51f8" stroke-linecap="round" stroke-linejoin="round" stroke-miterlimit="10" stroke-width="2"></line>
    <line x1="8" x2="12" y1="16" y2="16" fill="none" stroke="#6f51f8" stroke-linecap="round" stroke-linejoin="round" stroke-miterlimit="10" stroke-width="2"></line>
  </g>
</svg>
