<svg xmlns="http://www.w3.org/2000/svg" viewBox="0 0 512 512">
  <path fill="black" d="M253.126 364.47a16.724 16.724 0 1 0 16.724 16.724 16.742 16.742 0 0 0-16.724-16.724zm0 23.447a6.724 6.724 0 1 1 6.724-6.723 6.731 6.731 0 0 1-6.724 6.724zM76.092 260.204a32.14 32.14 0 1 0 32.14 32.14 32.176 32.176 0 0 0-32.14-32.14zm0 54.28a22.14 22.14 0 1 1 22.14-22.14 22.166 22.166 0 0 1-22.14 22.14zM175.139 287.344h-48.22a5 5 0 1 0 0 10h48.22a5 5 0 0 0 0-10zM223.36 287.344h-24.332a5 5 0 1 0 0 10h24.333a5 5 0 0 0 0-10zM223.36 210.71h-96.442a5 5 0 0 0 0 10h96.442a5 5 0 0 0 0-10zM223.36 188.148H175.14a5 5 0 0 0 0 10h48.221a5 5 0 0 0 0-10zM126.918 198.148h24.331a5 5 0 0 0 0-10h-24.33a5 5 0 1 0 0 10zM288.99 236.642a32.14 32.14 0 1 0-32.14-32.14 32.177 32.177 0 0 0 32.14 32.14zm0-54.28a22.14 22.14 0 1 1-22.14 22.14 22.166 22.166 0 0 1 22.14-22.14zM342.815 287.354h96.443a5 5 0 1 0 0-10h-96.442a5 5 0 1 0 0 10zM391.037 299.916h-48.221a5 5 0 0 0 0 10h48.221a5 5 0 0 0 0-10zM444.258 304.916a5 5 0 0 0-5-5h-24.331a5 5 0 0 0 0 10h24.33a5 5 0 0 0 5-5zM103.519 172.516l-6.788 7.373a32.166 32.166 0 1 0 6.605 7.591l7.54-8.19a5 5 0 1 0-7.358-6.774zm-5.287 31.986a22.175 22.175 0 1 1-8.281-17.248l-14.602 15.862-6.165-6.347a5 5 0 0 0-7.174 6.968l9.85 10.14a5.001 5.001 0 0 0 3.587 1.516h.067a5 5 0 0 0 3.611-1.614l17.069-18.54a22.003 22.003 0 0 1 2.038 9.263z"/><path fill="Black" d="M486.398 75.716v-.003l10.563-19.357a22.782 22.782 0 0 0-9.076-30.877L458.802 9.61a22.784 22.784 0 0 0-30.876 9.076L384.1 99.002H43.786a31.558 31.558 0 0 0-31.52 31.53v216.682c0 .015-.004.029-.004.044s.004.029.004.044v41.2a31.558 31.558 0 0 0 31.52 31.53h171.53l-10.283 75.134h-23.335a5 5 0 0 0 0 10h144.876a5 5 0 0 0 0-10h-23.432l-10.284-75.134h169.598a31.56 31.56 0 0 0 31.53-31.53V347.3c0-.014.004-.027.004-.041s-.004-.027-.004-.041V130.532a31.566 31.566 0 0 0-21.24-29.797l13.649-25.015zm-271.272 419.45 10.283-75.133h57.356l10.283 75.133zm221.577-471.69a12.77 12.77 0 0 1 17.31-5.088l29.083 15.87a12.772 12.772 0 0 1 5.088 17.307l-8.17 14.972-10.93-5.964a5 5 0 0 0-4.788 8.778l10.93 5.964-56.868 104.22-9.47-19.089a20.565 20.565 0 0 0-4.986-6.415l51.855-95.035a5 5 0 0 0-1.994-6.784l-25.228-13.765zm-47.78 187.106c-1.973-9.632-6.21-16.063-12.635-19.117-7.499-3.565-15.723-1.27-20.408.678l-3.83-13.525 8.98-16.457 28.135-3.144a10.726 10.726 0 0 1 10.764 5.874l12.581 25.36-8.935 16.373zm-9.67 2.611-15.658 4.229a.546.546 0 0 1-.666-.377l-4.303-15.2c3.155-1.497 9.054-3.421 13.397-1.335 3.542 1.7 5.968 5.969 7.23 12.683zm44.492-165.968 20.84 11.37-49.6 90.899a20.335 20.335 0 0 0-6.931-.415l-21.177 2.366zM43.786 109.002h334.859l-18.247 33.44H22.266v-11.91a21.548 21.548 0 0 1 21.52-21.53zm418.67 301.03H43.786a21.548 21.548 0 0 1-21.52-21.53v-36.244h389.851a5 5 0 0 0 0-10H22.267V152.442h332.675l-1.443 2.644-11.204 20.534a5 5 0 0 0-.422 3.757l11.435 40.392a10.595 10.595 0 0 0 10.168 7.67 10.463 10.463 0 0 0 2.726-.363l42.043-11.354a4.998 4.998 0 0 0 3.085-2.433l11.205-20.534 21.997-40.313h39.454v189.816h-49.483a5 5 0 0 0 0 10h49.483v36.244a21.55 21.55 0 0 1-21.53 21.53zm21.53-279.5v11.91h-33.998l17.86-32.732a21.537 21.537 0 0 1 16.138 20.822z"/>
  <path fill="white" d="m317.137 259.17-7.717 8.382a32.227 32.227 0 1 0 6.66 7.531l8.414-9.14a5 5 0 1 0-7.357-6.773zm-6.007 33.174a22.178 22.178 0 1 1-8.498-17.418l-13.666 14.843-6.165-6.347a5 5 0 0 0-7.174 6.968l9.85 10.14a5.002 5.002 0 0 0 3.587 1.516h.067a5.002 5.002 0 0 0 3.612-1.613l16.225-17.624a22.006 22.006 0 0 1 2.162 9.535z"/>
</svg>
