<?xml version="1.0" encoding="utf-8"?>
<!-- Generator: Adobe Illustrator 27.5.0, SVG Export Plug-In . SVG Version: 6.00 Build 0)  -->
<svg version="1.1" xmlns="http://www.w3.org/2000/svg" xmlns:xlink="http://www.w3.org/1999/xlink" x="0px" y="0px"
	 viewBox="0 0 500 500" style="enable-background:new 0 0 500 500;" xml:space="preserve">
<g id="Background_Simple">
	<g>
		<g>
			<path style="fill:#FFE6DE;" d="M444.496,303.194C405.86,439.58,300.236,439.82,222.29,438.082
				c-96.903-2.161-184.777-84.305-184.777-189.15c0-104.845,45.684-189.443,174.344-189.443S501.075,103.467,444.496,303.194z"/>
		</g>
		<g>
			<g>
				<path style="fill:#ffffff;" d="M353.812,106.838c0,0-14.776,23.851-9.412,27.762c5.364,3.911,24.212,13.898,26.524,11.972
					c4.339-3.615,13.632-23.315,12.316-27.276C381.207,113.177,355.84,103.171,353.812,106.838z"/>
				<path style="fill:#FFE6DE;" d="M370.011,147.477c-5.546,0.001-22.569-9.788-26.025-12.309
					c-5.716-4.167,7.636-26.128,9.221-28.689c0.524-0.923,1.826-1.274,3.967-1.079c7.762,0.717,24.968,8.355,26.735,13.673
					c1.441,4.34-8.025,24.284-12.534,28.04C371.075,147.363,370.609,147.477,370.011,147.477z M356.104,106.755
					c-1.046,0-1.556,0.208-1.675,0.423l-0.018,0.03c-5.579,9.008-13.118,24.254-9.595,26.823c6.764,4.934,24.023,13.308,25.657,12
					c4.439-3.697,13.258-23.024,12.099-26.514c-1.462-4.403-17.766-11.998-25.527-12.715
					C356.692,106.77,356.379,106.755,356.104,106.755z"/>
			</g>
			<g>
				<path style="fill:#FFE6DE;" d="M376.331,120.127c-1.11,0.376-17.605,11.383-17.605,11.383s-3.312-11.842-3.345-12.176
					c0,0-3.631,0.365-4.234,1.319c-0.603,0.954,2.842,15.316,5.762,15.925c2.92,0.609,22.194-12.504,22.194-12.504L376.331,120.127z
					"/>
			</g>
		</g>
		<g>
			<path style="fill:#ffffff;" d="M362.552,242.187c0,0-13.442-27.759-4.949-24.479c8.493,3.28,22.126,14.084,22.126,14.084
				l15.022-8.527c3.245-1.842,7.052,1.288,5.872,4.828l-4.804,14.413c0,0,27.108,23.221,18.862,22.414
				c-8.246-0.807-28.132-2.754-28.132-2.754s5.397,29.91-1.747,22.844c-7.143-7.065-16.932-27.122-16.932-27.122
				s-35.055,2.934-25.222-2.469C352.482,250.016,362.552,242.187,362.552,242.187z"/>
		</g>
		<g>
			<path style="fill:#ffffff;" d="M89.657,124.745c0.09,1.833,2.294,39.002,2.294,39.002s-37.167,0-26.155,8.718
				c11.012,8.718,26.155,22.484,26.155,22.484s-22.229,21.107-14.097,21.107s31.534-4.13,31.534-4.13s8.259,43.591,13.307,31.202
				c5.047-12.389,9.177-31.202,9.177-31.202s61.486-2.753,49.097-7.342c-12.389-4.589-39.003-19.54-39.003-19.54
				s27.99-48.37,18.813-46.993c-9.177,1.376-37.592,21.107-37.592,21.107S89.457,120.677,89.657,124.745z"/>
		</g>
		<g>
			<path style="fill:#ffffff;" d="M247.615,305.229c0.09,1.833,2.294,39.003,2.294,39.003s-37.167,0-26.155,8.718
				c11.012,8.718,26.155,22.484,26.155,22.484s-22.229,21.107-14.097,21.107c8.132,0,31.534-4.13,31.534-4.13
				s8.259,43.591,13.307,31.202c5.047-12.389,9.177-31.202,9.177-31.202s61.486-2.753,49.097-7.342
				c-12.389-4.589-39.003-19.54-39.003-19.54s27.99-48.37,18.813-46.993c-9.177,1.377-37.592,21.107-37.592,21.107
				S247.415,301.161,247.615,305.229z"/>
		</g>
		<g>
			<path style="fill:#ffffff;" d="M86.729,343.632l5.837-17.774l6.629,17.774c0,0,13.243,2.252,13.397,3.487
				c0.151,1.207-12.675,4.988-12.675,4.988s-5.383,17.234-7.351,13.331c-1.968-3.903-3.877-12.543-3.877-12.543
				s-16.676-3.464-16.676-5.164C72.012,345.889,86.729,343.632,86.729,343.632z"/>
		</g>
		<g>
			<path style="fill:#ffffff;" d="M270.451,90.635l4.342-13.222l4.931,13.222c0,0,9.851,1.676,9.966,2.594
				c0.112,0.898-9.429,3.711-9.429,3.711s-4.004,12.82-5.468,9.917c-1.464-2.903-2.884-9.331-2.884-9.331
				s-12.405-2.577-12.405-3.842C259.503,92.313,270.451,90.635,270.451,90.635z"/>
		</g>
		<g>
			<path style="fill:#ffffff;" d="M257.906,197.427l4.342-13.222l4.931,13.222c0,0,9.851,1.676,9.966,2.594
				c0.112,0.898-9.429,3.71-9.429,3.71s-4.004,12.82-5.468,9.917c-1.464-2.903-2.884-9.331-2.884-9.331s-12.405-2.577-12.405-3.842
				C246.959,199.106,257.906,197.427,257.906,197.427z"/>
		</g>
		<g>
			<path style="fill:#FFFFFF;" d="M428.141,224.679l4.342-13.222l4.931,13.222c0,0,9.851,1.676,9.966,2.594
				c0.112,0.898-9.429,3.71-9.429,3.71s-4.004,12.82-5.468,9.917c-1.464-2.903-2.884-9.331-2.884-9.331s-12.405-2.577-12.405-3.842
				C417.193,226.358,428.141,224.679,428.141,224.679z"/>
		</g>
		<g>
			<path style="fill:#FFFFFF;" d="M139.281,109.035l2.42-7.369l2.749,7.369c0,0,5.491,0.934,5.555,1.446
				c0.063,0.501-5.255,2.068-5.255,2.068s-2.232,7.146-3.048,5.527c-0.816-1.618-1.607-5.201-1.607-5.201s-6.914-1.437-6.914-2.141
				C133.179,109.97,139.281,109.035,139.281,109.035z"/>
		</g>
		<g>
			<g>
				<path style="fill:#FFFFFF;" d="M384.189,308.535c0,0,1.608,26.225,7.824,26.313c6.216,0.088,26.025-2.474,26.751-5.198
					c1.361-5.111-2.193-25.196-5.342-27.512C408.558,298.561,383.755,304.635,384.189,308.535z"/>
			</g>
			<g>
				<path style="fill:#FFE6DE;" d="M406.148,305.854c-0.645,0.888-10.462,22.706-10.462,22.706l3.468,2.102
					c2.016-2.621,11.249-23.29,11.249-23.29L406.148,305.854z"/>
			</g>
			<g>
				<path style="fill:#FFE6DE;" d="M391.294,312.984c0.755,0.797,20.406,14.442,20.406,14.442l2.702-3.024
					c-2.207-2.462-20.837-15.323-20.837-15.323L391.294,312.984z"/>
			</g>
		</g>
		<g>
			<g>
				<path style="fill:#FFFFFF;" d="M181.651,109.029c0,0-2.399,40.198,7.042,41.481s40.055,1.045,41.662-2.965
					c3.016-7.524,1.32-38.741-3.044-42.847C220.572,98.356,181.711,103.015,181.651,109.029z"/>
				<path style="fill:#FFE6DE;" d="M204.097,151.892c-6.645,0-12.666-0.301-15.499-0.685c-4.296-0.584-6.877-7.945-7.669-21.879
					c-0.565-9.941-0.009-19.856,0.018-20.325c0.025-1.395,1.363-2.638,4.089-3.799c4.894-2.086,13.876-3.711,22.881-4.139
					c4.738-0.223,16.166-0.373,19.877,3.119c3.96,3.726,6.935,34.341,3.214,43.622C229.754,150.938,215.936,151.892,204.097,151.892
					z M212.389,102.374c-9.614,0-21.206,1.741-26.801,4.126c-2.908,1.239-3.229,2.186-3.233,2.536l-0.001,0.035
					c-0.656,11-0.779,39.761,6.434,40.741c15.452,2.098,39.999-0.244,40.914-2.529c3.106-7.748,1.012-38.417-2.872-42.072
					C224.692,103.2,219.009,102.374,212.389,102.374z"/>
			</g>
			<g>
				<path style="fill:#FFE6DE;" d="M219.153,110.459c-1.145,1.231-14.473,26.38-14.473,26.38s-12.258-12.698-12.527-13.098
					c0,0-4.337,2.937-4.448,4.553c-0.111,1.617,14.033,17.405,18.136,16.184c4.103-1.221,19.505-30.925,19.505-30.925
					L219.153,110.459z"/>
			</g>
		</g>
	</g>
</g>
<g id="Speech_Bubble">
	<g>
		<g>
			<g>
				<g>
					<path style="fill:#8380FF;" d="M383.497,120.659c7.299-4.667,18.855-4.311,29.239-1.313
						c10.046,2.623,23.627,8.147,30.633,12.073c7.48,4.192,14.407,10.215,17.07,18.366c3.611,11.052-0.87,23.009-5.951,33.467
						c-4.072,8.381-9.521,17.333-18.528,19.721c-5.81,1.54-11.948-0.025-17.716-1.717c-4.742-1.39-9.455-2.875-14.142-4.442
						c-6.618,5.365-20.526,10.552-20.95,7.699c-0.383-2.572,5.743-7.503,6.986-12.659c-1.393-0.525-2.783-1.057-4.169-1.597
						c-6.642-2.589-13.518-5.583-17.893-11.212c-5.116-6.581-5.852-15.616-4.752-23.879
						C365.136,141.531,371.909,128.069,383.497,120.659z"/>
				</g>
			</g>
		</g>
		<g>
			<path style="fill:#A0D2F4;" d="M436.791,147.816c-2.055,0.669-32.717,20.614-32.717,20.614s-5.854-21.914-5.907-22.53
				c0,0-6.705,0.595-7.838,2.342c-1.133,1.747,4.912,28.31,10.284,29.497c5.372,1.187,41.206-22.583,41.206-22.583L436.791,147.816z
				"/>
		</g>
	</g>
</g>
<g id="Character_00000028323861042131113130000017453914479022091685_">
	<g>
		<g>
			<g>
				<path style="fill:#8380FF;" d="M359.649,250.273c-1.581-6.971-26.359-9.621-53.208-13.983
					c-26.848-4.362-48.201,0.233-48.201,0.233s46.045,107.871,60.168,122.411c14.122,14.54,60.168,15.85,60.168,15.85
					S362.789,264.122,359.649,250.273z"/>
			</g>
			<g style="opacity:0.3;">
				<path style="fill:#421B36;" d="M270.585,262.812c0.426-0.312,0.875-0.643,1.343-0.988c0.98,0.159,1.951,0.315,2.883,0.467
					C276.333,266.254,270.417,266.967,270.585,262.812z M280.996,283.968c1.072,0.263,1.798-0.385,2.752-0.911
					C284.098,277.186,276.892,280.713,280.996,283.968z M289.16,298.633c-0.16,0.704-0.295,1.304-0.431,1.907
					c0.535,0.58,1.043,1.129,1.608,1.738c2.216-0.951,4.076-2.632,1.364-4.192C290.792,298.282,289.955,298.461,289.16,298.633z
					 M300.445,307.195c-0.409,0.218-0.732,0.391-1.018,0.542c-0.648-0.188-0.609-1.243-1.703-0.96
					C297.641,314.127,304.834,310.123,300.445,307.195z M293.153,309.395c-0.325-0.605-0.558-1.26-0.997-1.772
					c-1.734-0.156-2.31-0.159-2.777,0.538l1.412,2.927C291.749,311.276,292.697,310.813,293.153,309.395z M297.785,299.986
					c0.555,2.23,3.228,2.445,4.069,1.055c-0.485-0.871-0.972-1.745-1.461-2.622C299.308,298.193,298.135,298.674,297.785,299.986z
					 M296.402,315.31c0.063-0.806,1.169-1.157,1.034-2.297c-1.48-2.054-3.55-2.03-4.253,0.615
					C294.242,314.193,294.666,315.791,296.402,315.31z M313.597,324.396c0.449,0.076,0.819,0.021,1.128-0.106
					c-0.585-1.065-1.18-2.148-1.792-3.259C311.822,321.963,311.56,324.977,313.597,324.396z M302.771,305.808
					c0.487,0.479,1.205,0.527,1.905,0.305c-0.499-0.898-1.002-1.802-1.507-2.71C302.656,303.979,302.417,304.836,302.771,305.808z
					 M263.107,243.513c-2.877,2.244-1.217,4.441,1.972,2.954C267.214,245.608,265.009,243.25,263.107,243.513z M274.457,273.453
					c0.815-1.843-1.294-2.65-2.858-2.152l1.668,3.458C273.755,274.616,274.193,274.217,274.457,273.453z M314.959,333.025
					c0.651-0.912,0.645-1.783,0.346-2.675c-1.018-0.166-1.923-0.312-2.815-0.458C310.34,331.872,312.551,334.602,314.959,333.025z
					 M297.687,318.225c0.66,0.395,0.88,0.862,1.232,1.412c0.875,0.621,2.471-0.328,2.884-1.16
					C302.501,315.118,298.455,315.469,297.687,318.225z M286.213,288.505c2.953-0.7,2.037-4.855-0.6-4.169
					C284.022,285.704,284.222,287.794,286.213,288.505z M316.822,337.61c0.449,0.152,0.914,0.311,1.346,0.458
					c1.192-0.572,1.192-0.572,2.029-1.557c0.074-1.697-1.348-1.806-2.354-2.326C315.969,335.22,315.822,335.724,316.822,337.61z
					 M296.864,306.246c1.29-1.569,1.039-3.321-0.588-3.208c-1.012,0.555-2.613-0.209-2.923,1.249
					C294.064,306.189,294.824,306.736,296.864,306.246z M305.886,314.262c0.83-1.501,0.172-2.424-1.252-2.858
					c-1.544,0.238-1.675,1.366-1.989,2.424C302.819,315.544,305.71,316.394,305.886,314.262z M326.913,347.376
					c-0.144-0.439-0.6-1.417-1.338-2.882c-0.103,0.21-0.22,0.472-0.375,0.822C325.614,346.365,326.197,347.204,326.913,347.376z
					 M290.697,288.706c-0.537,0.655-1.114,1.36-1.623,1.98c0.245,1.495,1.32,1.892,2.615,2.409c0.498-0.981,0.945-1.861,1.406-2.769
					C292.461,289.538,291.852,288.849,290.697,288.706z M294.342,287.582c-0.189-0.338-0.378-0.676-0.567-1.013
					c-0.091,0.161-0.186,0.326-0.293,0.506C293.764,287.291,294.063,287.43,294.342,287.582z M317.806,343.455
					c-0.1,0.004-0.191,0.024-0.281,0.045c0.722,0.392,1.429,0.769,2.112,1.129C319.315,344.003,318.688,343.497,317.806,343.455z
					 M280.033,264.155c0.441,0.795,1.134,1.155,1.878,1.32c0.01-0.004,0.02-0.008,0.029-0.013c-0.486-0.865-0.965-1.717-1.439-2.56
					C280.306,263.24,280.141,263.65,280.033,264.155z M274.597,254.476c-0.292-0.538-0.614-1.13-0.906-1.668
					c-2.108-0.243-2.695,0.656-3.146,2.298C271.753,257.008,274.263,256.831,274.597,254.476z M265.43,255.26
					c0.175-1.923-1.007-2.974-2.647-2.234l1.592,3.301C264.789,256.154,265.168,255.819,265.43,255.26z M286.913,303.047
					l0.956,1.981c0.09-0.414,0.122-0.875,0.237-1.347C287.662,303.366,287.274,303.179,286.913,303.047z M323.232,342.936
					c0.286-0.425,0.58-0.861,0.871-1.294c-0.478-0.912-1.006-1.911-1.586-2.999c-0.1-0.082-0.197-0.169-0.286-0.276
					C320.919,339.856,320.574,343.002,323.232,342.936z M264.015,238.772c0.659-0.762,1.219-1.412,1.748-2.025
					c-0.472-0.835-0.727-1.285-0.727-1.285l-3.171,0.418c0.321,0.804,0.613,1.543,0.94,2.36
					C263.101,238.37,263.492,238.542,264.015,238.772z M294.935,297.233c1.139-0.364,2.426-0.179,2.649-1.714
					c-1.357-1.627-1.936-2.628-3.953-1.338C293.38,295.476,293.821,296.467,294.935,297.233z M266.338,249.95
					c-0.353,1.786,2.193,2.232,3.286,1.314c-0.209-0.614,0.229-1.04,0.406-1.551C270.024,247.604,266.297,247.791,266.338,249.95z
					 M279.487,286.371c-0.094-1.312-0.779-1.902-1.562-1.955l1.288,2.669C279.349,286.883,279.449,286.649,279.487,286.371z
					 M288.532,294.916c-1.923-1.138-1.923-1.138-3.461-0.806c-0.918,0.885-0.412,1.74,0.052,2.798
					C286.767,296.895,289.252,297.41,288.532,294.916z M303.118,321.256c-1.626,2.437,2.033,4.715,3.314,1.759
					C306.323,321.084,304.76,320.07,303.118,321.256z M266.399,258.413c0.308,0.694,0.629,1.42,0.949,2.141c0.888,0,1.694,0,2.536,0
					c0.197-0.498,0.375-0.951,0.582-1.48c-0.705-0.746-1.305-1.378-1.892-2.001C267.599,257.151,266.799,257.397,266.399,258.413z
					 M315.769,340.56c-1.125-1.557-2.475-2.218-4.033-0.772c0.018,0.189,0.05,0.37,0.091,0.543c1.032,0.586,2.088,1.18,3.143,1.766
					C315.306,341.781,315.592,341.286,315.769,340.56z M302.742,331.843c0.678,0.903,1.085,1.445,1.518,2.023
					c1.415-0.331,1.415-0.331,2.018-2.495C305.713,329.688,302.673,329.766,302.742,331.843z M266.292,241.301
					c1.097,1.436,2.101,1.658,2.796,1.334c-0.692-1.227-1.304-2.311-1.833-3.248C266.932,240.026,266.615,240.657,266.292,241.301z
					 M288.583,277.847c-0.734-0.74-0.897-1.818-2.051-2.083c-2.488,0.596-2.502,2.998-0.023,3.641
					C287.431,279.186,287.96,278.594,288.583,277.847z M275.543,268.116c0.266,0.523,0.48,0.945,0.791,1.555
					C282.083,270.808,277.183,262.565,275.543,268.116z M258.891,239.118c-0.922,0.095-0.984,1.133-1.18,1.992
					c-0.732,0.887,0.864,1.498,1.504,1.367C262.253,242.888,261.13,238.523,258.891,239.118z M308.815,334.68
					c-0.317,1.088-1.803,0.806-1.952,2.017c0.526,1.246,1.751,1.016,2.752,1.369c0.833-0.72,1.767-1.293,1.01-2.42
					C310.416,334.9,309.466,333.725,308.815,334.68z M283.997,272.596c-0.355-0.145-0.735-0.301-1.108-0.455
					c-0.026-0.255-0.051-0.489-0.085-0.809c-0.62-0.078-1.198-0.205-1.786-0.382c-0.698,0.683-0.763,1.555-1.003,2.271
					C280.965,275.34,283.282,274.685,283.997,272.596z M283.957,291.157c-0.338-2.438-2.166-1.922-3.201-0.871l1.143,2.371
					c0.259-0.008,0.527-0.02,0.851-0.068C283.145,292.121,283.541,291.652,283.957,291.157z M298.233,326.064
					c0.132,0.28,0.176,0.569,0.198,0.863l0.962,1.995C303.091,328.682,301.569,323.531,298.233,326.064z M309.018,319.727
					c3.988,0.686,0.985-5.255-1.737-2.49C307.079,318.922,308.015,318.987,309.018,319.727z M256.454,236.593l-1.502,0.198
					l0.49,1.017C256.169,237.515,256.471,237.075,256.454,236.593z M308.116,325.839c-1.792,2.789,1.498,4.671,2.835,1.478
					C310.079,325.542,310.079,325.542,308.116,325.839z M297.214,323.046c-0.962-0.795-0.273-1.906-1.2-2.63
					c-0.207,0.075-0.414,0.145-0.619,0.218l1.573,3.262C297.224,323.76,297.356,323.51,297.214,323.046z M291.844,283.117
					c-0.54-0.965-1.078-1.925-1.614-2.882c-0.206,0.124-0.421,0.301-0.642,0.538C288.096,282.472,290.274,283.658,291.844,283.117z
					 M275.778,258.391c0.355,0.871,0.675,1.655,0.995,2.44c1.386,0.183,1.734,0.187,2.196-0.654
					c-0.446-0.792-0.884-1.571-1.315-2.338C277.018,257.717,276.337,257.861,275.778,258.391z M278.552,278.653
					c1.044-1.57,0.599-1.638-0.335-2.426C274.819,274.346,275.569,279.775,278.552,278.653z"/>
			</g>
			<g>
				<path style="fill:#A0D2F4;" d="M287.795,247.251c0,0-19.763,25.548,1.484,26.929s68.453-27.74,37.687-34.669
					C296.2,232.583,287.795,247.251,287.795,247.251z"/>
			</g>
			<g>
				<path style="fill:#FFBFBF;" d="M290.748,248.462c0,0-12.969,22.081,1.75,23.17c14.719,1.089,50.798-22.616,34.467-32.122
					C310.635,230.006,290.748,248.462,290.748,248.462z"/>
			</g>
		</g>
		<g>
			<g>
				<path style="fill:#8380FF;" d="M65.193,240.964c0,0,81.072,223.931,94.573,219.542c32.201-10.467,161.725-64.599,161.325-76.315
					c-0.733-21.486-92.18-209.39-96.675-215.526C220.129,162.811,63.122,232.666,65.193,240.964z"/>
			</g>
			<g>
				<path style="fill:#FFFFFF;" d="M71.103,245.452c0,0,76.346,212.107,89.847,207.719c32.201-10.467,159.788-60.094,150.966-79.699
					c-8.822-19.605-84.796-187.346-89.291-193.483C218.337,174.137,69.032,237.154,71.103,245.452z"/>
				<path style="fill:#421B36;" d="M160.363,453.995c-3.08,0-12.291-7.381-50.055-102.779
					C89.768,299.328,70.631,246.221,70.44,245.691l-0.021-0.068c-0.279-1.119-1.128-4.523,39.098-23.38
					c21.577-10.115,49.117-21.857,71.872-30.641c39.455-15.231,41.16-12.905,41.803-12.028c4.549,6.21,80.85,174.688,89.366,193.611
					c0.736,1.636,0.655,3.493-0.242,5.517c-9.939,22.447-123.121,66.029-151.148,75.14
					C160.951,453.911,160.691,453.995,160.363,453.995z M71.784,245.268c0.713,1.979,19.592,54.299,39.834,105.433
					c37.286,94.19,46.761,102.549,49.114,101.801c27.906-9.071,140.546-52.348,150.296-74.37c0.738-1.667,0.818-3.097,0.245-4.37
					c-8.509-18.91-84.737-187.24-89.217-193.356c-4.7-3.434-112.838,40.118-144.092,59.733
					C71.953,243.911,71.779,245.12,71.784,245.268z"/>
			</g>
			<g>
				<path style="fill:#FFFFFF;" d="M69.553,244.033c0,0,81.038,204.233,94.539,199.844c32.201-10.467,162.798-59.056,153.975-78.661
					c-8.822-19.605-90.514-184.812-95.009-190.949C218.771,168.415,67.482,235.735,69.553,244.033z"/>
				<path style="fill:#421B36;" d="M163.486,444.704c-3.115,0-12.566-7.213-52.371-98.823
					c-21.701-49.943-42.013-101.078-42.216-101.588l-0.029-0.089c-1.132-4.538,30.048-20.219,56.404-32.574
					c30.611-14.349,94.926-42.456,98.352-37.778c4.345,5.933,85.683,170.187,95.083,191.075c0.718,1.595,0.643,3.394-0.221,5.346
					c-10.188,23.011-132.158,67.116-154.178,74.274C164.09,444.619,163.826,444.704,163.486,444.704z M70.235,243.844
					c0.869,2.187,20.85,52.41,42.172,101.479c39.395,90.663,49.123,98.637,51.468,97.885c36.161-11.755,144.1-52.669,153.326-73.505
					c0.705-1.592,0.778-2.966,0.224-4.198c-9.392-20.869-90.605-184.91-94.935-190.821c-4.604-3.185-111.843,42.288-144.937,63.162
					C70.527,242.277,70.239,243.66,70.235,243.844z"/>
			</g>
			<g>
				<g>
					<path style="fill:#421B36;" d="M184.925,299.457c22.069-10.604,44.157-21.175,66.024-32.191c1.012-0.51,0.122-2.029-0.888-1.52
						c-21.867,11.017-43.955,21.588-66.024,32.191C183.016,298.428,183.908,299.946,184.925,299.457L184.925,299.457z"/>
				</g>
			</g>
			<g>
				<g>
					<path style="fill:#421B36;" d="M189.887,310.997c22.877-9.232,45.112-19.99,67.021-31.308c1.007-0.52,0.117-2.039-0.888-1.52
						c-21.773,11.247-43.866,21.956-66.6,31.13C188.382,309.718,188.835,311.421,189.887,310.997L189.887,310.997z"/>
				</g>
			</g>
			<g>
				<g>
					<path style="fill:#421B36;" d="M212.448,362.781c22.069-10.604,44.157-21.175,66.024-32.191c1.012-0.51,0.122-2.028-0.888-1.52
						c-21.867,11.017-43.955,21.588-66.024,32.191C210.539,361.752,211.431,363.27,212.448,362.781L212.448,362.781z"/>
				</g>
			</g>
			<g>
				<g>
					<path style="fill:#421B36;" d="M217.41,374.321c22.877-9.232,45.112-19.99,67.021-31.308c1.007-0.52,0.117-2.039-0.888-1.52
						c-21.772,11.247-43.866,21.956-66.6,31.13C215.905,373.042,216.358,374.745,217.41,374.321L217.41,374.321z"/>
				</g>
			</g>
			<g>
				<g>
					<path style="fill:#421B36;" d="M223.088,385.852c20.04-9.419,40.081-18.838,60.121-28.257c1.024-0.482,0.132-1.999-0.888-1.52
						c-20.04,9.419-40.081,18.838-60.121,28.257C221.175,384.814,222.068,386.331,223.088,385.852L223.088,385.852z"/>
				</g>
			</g>
			<g>
				<path style="fill:#FFFFFF;" d="M121.364,318.334c0,0,14.011,40.829,23.893,38.251c9.882-2.578,40.135-15.295,40.093-19.926
					c-0.078-8.689-14.487-38.944-20.486-41.236C155.598,291.884,118.972,312.347,121.364,318.334z"/>
				<path style="fill:#8380FF;" d="M144.357,357.404c-4.272,0-9.442-6.27-15.387-18.674c-4.616-9.631-8.108-19.693-8.267-20.153
					c-0.536-1.372,0.279-3.132,2.492-5.379c8.145-8.272,34.154-21.4,41.919-18.432c4.314,1.647,10.923,14.629,12.846,18.567
					c3.998,8.191,8.051,18.578,8.094,23.319c0.05,5.624-32.381,18.464-40.619,20.613
					C145.083,357.357,144.723,357.404,144.357,357.404z M162.149,295.703c-9.346,0-30.94,11.362-37.95,18.482
					c-2.397,2.435-2.324,3.53-2.181,3.887l0.012,0.033c3.838,11.185,15.482,39.736,23.048,37.798
					c11.806-3.082,39.6-15.607,39.567-19.238c-0.08-8.957-14.685-38.542-20.034-40.586
					C163.941,295.824,163.109,295.703,162.149,295.703z"/>
			</g>
			<g style="opacity:0.3;">
				<path style="fill:#421B36;" d="M175.533,214.175c-0.206-0.902,0.156-1.789,1.548-1.674c0-0.378,0-0.757,0-1.135
					c0.42,0.074,0.84,0.146,1.372,0.238c0.144,0.167,0.263,0.35,0.37,0.538C177.752,212.812,176.653,213.491,175.533,214.175z
					 M177.081,202.671c-0.926,0.363-1.552,0.963-1.648,1.923c0.425,0.726,0.966,0.903,1.648,0.723c0,0.252,0,0.505,0,0.757
					C179.963,206.136,179.11,203.483,177.081,202.671z M194.241,193.924c-0.263,0.781-0.511,1.523-0.763,2.27
					c2.435,3.477,5.956-0.93,2.526-2.917C195.281,193.543,194.758,193.736,194.241,193.924z M181.227,207.353
					c-0.535,0.675-0.871,1.388-1.085,2.075c0.218,0.706,0.629,1.013,1.098,1.185c0.987-0.63,1.945-1.25,2.872-1.859
					C183.629,207.697,182.4,207.544,181.227,207.353z M186.731,202.536c-0.566,0.311-1.101,0.601-1.578,0.861
					c-0.242,2.347,0.457,3.493,2.441,2.972c0.325-0.763,1.085-1.449,0.76-2.543C187.842,203.418,187.316,203,186.731,202.536z
					 M184.124,182.258c-0.547-2.412-3.201-2.689-3.933-0.256C181.716,184.03,182.49,184.079,184.124,182.258z M188.266,185.11
					c-0.777-0.077-1.446-0.143-2.187-0.215c-0.361,1.003-1.268,1.764-0.932,2.894C187.002,188.293,189.125,187.832,188.266,185.11z
					 M188.866,200.094c1.822,2.754,3.609,1.234,4.516-1.257c-0.88-0.203-1.621-0.375-2.332-0.538
					C190.438,199.53,190.438,199.53,188.866,200.094z M188.122,194.723c-1.176-1.332-2.193-0.252-3.058,0.807
					c0.864,2.161,1.624,1.607,3.31,1.034C189.198,196.094,188.676,195.174,188.122,194.723z M179.756,199.856
					c0.971,0.442,1.372,0.826,1.695,1.88C186.616,201.27,181.914,196.421,179.756,199.856z M184.127,191.232
					c-0.923-1.206-3.593-1.477-4.155,0.077C180.83,192.68,183.488,192.655,184.127,191.232z M191.338,189.342
					c-0.16,0.298-0.303,0.565-0.491,0.915c-3.926-0.074,0.588,2.69,2.577,0.855C192.762,190.312,192.451,189.305,191.338,189.342z
					 M176.484,184.951c-0.275,0.811-0.554,1.631-0.809,2.38c0.509,1.221,0.52,1.218,1.406,1.352c0-0.252,0-0.503,0-0.755
					c0.546,0.143,1.084,0.197,1.534-0.074c1.142-1.75,0.453-2.687-1.534-2.572c0-0.126,0-0.253,0-0.378
					C176.893,184.919,176.707,184.933,176.484,184.951z M175.388,194.578c0.8,1.155,0.8,1.155,0.978,2.341
					c0.234,0.026,0.475,0.054,0.715,0.081c0.672,0.203,1.135-0.268,1.617-0.438c0.203-0.598,0.375-1.112,0.541-1.603
					c-0.541-0.784-1.364-1.051-2.158-1.361c0,0.126,0,0.252,0,0.378C176.35,193.543,175.674,193.751,175.388,194.578z
					 M124.258,233.502c2.234-1.976-1.4-4.943-3.32-2.93C119.484,233.052,122.042,235.276,124.258,233.502z M119.932,237.698
					c0.258-1.309-0.016-2.344-0.995-3.291c-1.031,0.092-1.955,0.174-2.94,0.263C115.257,237.438,117.547,239.95,119.932,237.698z
					 M124.833,224.767c-0.665-2.789,0.843-4.291-3.455-3.74C119.861,223.7,122.022,226.016,124.833,224.767z M113.982,238.816
					c-0.276,0.018-0.515,0.079-0.735,0.156c0.78,0.908,1.637,1.665,2.575,2.212C115.855,240.095,115.22,238.954,113.982,238.816z
					 M125.53,210.831c1.97,0.646,3.627-0.238,3.558-1.98C127.874,209.527,126.686,210.188,125.53,210.831
					C125.53,210.831,125.529,210.831,125.53,210.831z M129.472,236.632c0.003-1.062-1.539-2.52-2.584-2.401
					c-1.068,0.26-0.729,1.514-1.428,2.081c-0.178,0.146-0.163,0.783,0.003,1.047C126.45,239.153,129.428,238.88,129.472,236.632z
					 M172.799,197.799c-2.557,0.99-2.831,3.748-0.011,4.512C175.507,201.621,175.089,198.943,172.799,197.799z M114.037,234.12
					c0.623-0.955,2.783-1.778,1.433-3.109c-1.165-1.087-3.277-1.578-4.084,0.201C112.09,232.409,112.275,234.128,114.037,234.12z
					 M120.487,227.355c-0.472-1.378-1.572-1.615-2.427-2.274c-1.677,1.197-2.568,2.902-0.791,4.452
					C119.14,229.908,119.346,228.047,120.487,227.355z M167.601,202.508c-1.089,0.557-0.871,1.974-1.812,2.632
					C168.611,209.244,172.951,203.781,167.601,202.508z M141.282,225.13c0.629-0.429,1.18-0.803,1.771-1.205
					c-0.209-0.908-0.36-1.561-0.512-2.22c-0.58-0.377-1.141-0.741-1.663-1.078c-1.179,0.616-2.383,1.851-1.692,3.246
					C140.117,223.725,140.659,224.453,141.282,225.13z M122.767,238.796c-0.745,0.835-2.054,1.221-2.138,2.429
					c0.095,0.2,0.216,0.373,0.349,0.535c1.079-0.265,2.382-0.682,3.873-1.229c-0.019-0.082-0.028-0.159-0.055-0.245
					C124.061,239.747,123.415,239.273,122.767,238.796z M111.024,218.912c-0.872,0.486-1.636,0.913-2.278,1.271
					C109.944,220.974,110.782,220.055,111.024,218.912z M140.865,202.452c-4.674,1.481,0.835,6.753,2.231,2.157
					C142.393,203.774,141.742,203.034,140.865,202.452z M120.828,214.426c0.875,1.778,2.999,1.016,4.081-0.234
					c-0.147-1.141-0.83-1.85-1.601-2.126c-0.855,0.476-1.69,0.941-2.5,1.392C120.766,213.743,120.763,214.062,120.828,214.426z
					 M149.906,225.039c2.493-1.195,2.589-2.363,0.314-4.109C147.219,221.111,147.59,224.099,149.906,225.039z M107.936,225.602
					c-0.113,0.454-0.221,0.889-0.291,1.335c0.174,0.633,0.371,1.298,0.586,1.981C112.318,229.573,112.355,224.489,107.936,225.602z
					 M128.94,226.404c-1.047-1.29-2.609-1.087-3.427,0.318c0.236,1.184,0.506,2.254,1.585,2.813
					c0.602-0.042,0.934-0.278,1.535-0.489C128.517,228.004,129.299,227.263,128.94,226.404z M136.57,220.081
					c0.606-0.637,1.463-0.754,1.797-1.511C137.55,213.448,131.054,219.307,136.57,220.081z M128.106,220.444
					c1.952-2.762,0.249-4.615-2.707-3.075C124.862,219.456,126.196,220.28,128.106,220.444z M119.817,217.158
					c-0.398-0.257-0.863-0.555-1.257-0.809C112.233,218.963,120.988,222.893,119.817,217.158z M160.215,211.928
					c-2.319-0.522-3.213,1.16-2.395,3.191C160.246,216.632,161.673,213.95,160.215,211.928z M130.051,214.388
					c1.111,1.579,3.146,1.629,3.783-0.384C133.431,211.577,128.69,211.71,130.051,214.388z M141.148,211.681
					c-1.344,0.538-1.344,0.538-2.074,1.914C140.339,218.192,144.841,213.865,141.148,211.681z M132.169,233.744
					c1.017-0.526,1.226-1.427,1.769-2.101c-0.368-0.597-0.688-1.117-0.972-1.578c-2.654,0.253-3.9,0.586-2.229,3.212
					C131.224,233.4,131.683,233.551,132.169,233.744z M134.183,236.538c0.003,0.012,0.01,0.019,0.013,0.031
					c0.937-0.434,1.899-0.888,2.885-1.36C136.121,234.262,134.562,234.717,134.183,236.538z M162.62,192.54
					c2.814,0.528,3.086-1.454,1.723-3.229c-0.758,0.417-1.524,0.84-2.307,1.272C162.037,191.265,162.256,192.01,162.62,192.54z
					 M156.193,217.717c-0.844-0.601-0.844-0.601-2.223-0.869c-0.855,0.626-1.726,1.262-1.322,2.701
					C154.824,220.751,155.642,220.315,156.193,217.717z M112.805,224.613c2.152-0.286,2.443-0.52,2.937-2.331
					c-0.541-1.248-1.831-0.804-2.824-1.294c-0.902,0.816-0.953,1.619-0.172,2.475C112.965,223.832,112.228,224.259,112.805,224.613z
					 M153.568,225.873c-0.925,0.161-1.134,0.776-0.958,1.409c0.807-0.433,1.616-0.87,2.427-1.311
					C154.594,225.763,154.084,225.692,153.568,225.873z M130.843,221.007c-0.372,1.115-1.025,2.052-0.297,3.086
					c0.809-0.037,1.432,0.125,2.041,0.586c1.184-1.048,1.177-1.045,0.589-2.14C132.854,221.304,132.194,220.686,130.843,221.007z
					 M152.627,208.772c0.351,1.097,0.218,2.349,1.643,2.588C158.292,210.488,154.838,206.277,152.627,208.772z M171.069,208.981
					c-0.762,3.198,4.482,1.031,3.417-0.618C173.302,207.493,170.839,206.457,171.069,208.981z M169.794,187.371
					c-0.074-0.338-0.137-0.651-0.206-0.946c-0.797,0.438-1.621,0.891-2.464,1.354C167.663,188.11,168.571,188.025,169.794,187.371z
					 M106.69,222.953c0.117-0.363,0.048-0.658-0.186-0.957C106.548,222.238,106.611,222.565,106.69,222.953z M145.518,216.485
					c-0.054-0.314-0.211-0.462-0.489-0.372c-0.142,0.045-0.354,0.289-0.324,0.375c0.218,1.483-2.174,1.532-0.511,3.231
					c0.725,0,1.464,0,2.221,0c0.409-0.605,0.791-1.165,1.2-1.769C147.12,216.499,145.551,218.059,145.518,216.485z M168.025,211.973
					c-1.132,0.216-2.283,1.584-1.658,2.761c1.617,0.639,2.664,0.611,3.406-1.149C169.514,212.565,168.884,212.141,168.025,211.973z
					 M173.576,189.22c-0.867-0.03-1.643-0.158-1.858,0.797c-1.512,0.618-0.894,1.455,0.021,2.544
					C174.369,193.077,174.288,191.186,173.576,189.22z M160.74,204.989c-0.557-1.163-0.557-1.163-1.677-1.718
					c-1.685,0.325-2.722,0.855-1.191,2.747c0.575,0.172,1.221,0.366,1.948,0.585C160.161,206.003,160.464,205.471,160.74,204.989z
					 M137.099,228.965c-0.069-0.229-0.139-0.46-0.255-0.849c4.705-2.152-2.538-2.879-2.377,0.069
					C134.695,229.038,136.506,229.753,137.099,228.965z M139.487,230.576c-0.498,1.141,0.292,2.003,0.306,3.123
					c0.104,0.028,0.192,0.033,0.289,0.051c0.689-0.339,1.385-0.686,2.09-1.039C142.511,231.461,141.47,229.709,139.487,230.576z
					 M160.245,194.478c-1.982-0.321-3.811,0.756-2.424,2.809c0.649,0.06,1.317,0.12,1.994,0.183
					c0.366-0.506,0.689-0.951,1.006-1.388C160.638,195.576,160.474,195.113,160.245,194.478z M147.258,199.688
					c-0.151-0.268-0.317-0.478-0.488-0.659c-0.991,0.55-1.983,1.1-2.975,1.65c0.05,0.291,0.151,0.597,0.319,0.911
					C145.421,201.661,146.518,200.962,147.258,199.688z M154.844,197.939c-0.401-0.132-0.974,0.142-1.1,0.754
					c-0.129,1.059-1.068,0.854-1.495,1.552c0.643,0.193,1.003,0.632,1.394,1.118C155.574,202.805,156.876,198.498,154.844,197.939z
					 M151.173,215.028c0.079-0.703,0.152-1.364,0.235-2.095C146.899,210.859,147.189,216.833,151.173,215.028z M138.159,209.527
					c-0.797-0.901-2.008-0.842-2.675-1.724c-0.618,0.308-1.052,0.806-1.48,1.431C135.328,211.105,137.077,211.94,138.159,209.527z
					 M146.194,228.434c0.995-1.018,0.32-1.812,0.046-2.597C142.644,224.991,142.457,229.352,146.194,228.434z M169.553,196.305
					c1.113-1.676-0.935-2.494-2.386-2.172C165.381,196.215,167.89,197.578,169.553,196.305z M162.574,199.099
					c-0.81,0.827-0.521,2.434,0.76,2.517C166.832,201.093,164.942,197.587,162.574,199.099z M162.567,210.635
					c6.307-1.064-0.331-5.518-0.708-0.635C162.08,210.198,162.349,210.439,162.567,210.635z M147.7,204.668
					c0.946,1.48,0.786,1.086,3.027,0.846C152.867,202.947,148.48,202.691,147.7,204.668z M165.699,218.632
					c-0.968-1.633-2.331-2.322-3.649-0.471C162.495,220.326,164.676,220.004,165.699,218.632z M158.743,221.355
					c-0.837,0.194-1.389,0.625-1.582,1.551c0.395,0.652,0.941,0.976,1.483,1.083c0.662-0.367,1.324-0.737,1.985-1.108
					C160.611,222.373,160.096,221.793,158.743,221.355z M146.846,209.244c-1.16-1.431-1.474-1.572-2.847-1.315
					c-0.152,0.449-0.308,0.914-0.506,1.5c0.825,0.592,1.585,1.243,2.477,1.115C146.252,210.124,146.557,209.672,146.846,209.244z"/>
			</g>
			<g>
				<path style="fill:#8380FF;" d="M117.944,229.066c-1.743,0-14.216-17.876-8.408-23.685c5.809-5.809,68.203-36.424,72.711-31.748
					c4.806,4.985,9.465,22.324,9.465,22.324L117.944,229.066z"/>
			</g>
			<g>
				<path style="fill:#FFFFFF;" d="M149.906,376.665c0,0,14.011,40.829,23.893,38.251c9.882-2.578,40.135-15.295,40.093-19.926
					c-0.078-8.689-14.487-38.944-20.486-41.236C184.139,350.216,147.513,370.678,149.906,376.665z"/>
				<path style="fill:#8380FF;" d="M172.899,415.736c-4.272,0-9.442-6.27-15.387-18.674c-4.616-9.631-8.108-19.693-8.267-20.152
					c-0.536-1.372,0.279-3.132,2.492-5.379c8.145-8.272,34.153-21.402,41.919-18.432c4.314,1.647,10.923,14.629,12.846,18.567
					c3.999,8.191,8.051,18.578,8.094,23.319c0.051,5.624-32.381,18.464-40.62,20.613
					C173.624,415.689,173.265,415.736,172.899,415.736z M190.691,354.035c-9.346,0-30.94,11.362-37.95,18.482
					c-2.397,2.435-2.324,3.53-2.181,3.887l0.012,0.033c3.838,11.185,15.483,39.748,23.048,37.799
					c11.807-3.08,39.6-15.607,39.567-19.238c-0.08-8.957-14.684-38.541-20.034-40.586
					C192.482,354.156,191.65,354.035,190.691,354.035z"/>
			</g>
			<g>
				<g>
					<path style="fill:#FFFFFF;" d="M91.25,257.507c0,0,14.011,40.829,23.893,38.251c9.882-2.578,40.135-15.295,40.093-19.926
						c-0.078-8.689-14.487-38.944-20.486-41.236C125.484,231.058,88.858,251.52,91.25,257.507z"/>
					<path style="fill:#8380FF;" d="M114.244,296.578c-4.273,0-9.442-6.27-15.387-18.674c-4.616-9.631-8.108-19.694-8.267-20.153
						c-0.536-1.373,0.28-3.134,2.493-5.381c8.146-8.272,34.15-21.395,41.918-18.431c4.314,1.648,10.923,14.628,12.846,18.568
						c3.998,8.191,8.052,18.578,8.094,23.319c0.05,5.624-32.381,18.464-40.62,20.613
						C114.969,296.531,114.61,296.578,114.244,296.578z M132.034,234.877c-9.345,0-30.937,11.361-37.948,18.48
						c-2.398,2.436-2.325,3.53-2.182,3.888l0.012,0.033c3.711,10.812,14.698,37.894,22.28,37.897c0.261,0,0.517-0.033,0.769-0.098
						c11.805-3.08,39.599-15.607,39.567-19.238c-0.08-8.957-14.685-38.542-20.034-40.585
						C133.827,234.997,132.994,234.877,132.034,234.877z"/>
				</g>
				<g>
					<path style="fill:#8380FF;" d="M129.011,243.635c-0.633,1.688-3.593,32.053-3.593,32.053s-17.329-7.59-17.759-7.877
						c0,0-3.102,4.68-2.553,6.327c0.549,1.648,21.008,11.534,24.578,8.65c3.57-2.883,6.728-38.61,6.728-38.61L129.011,243.635z"/>
				</g>
			</g>
			<g>
				<path style="fill:#8380FF;" d="M188.974,359.743c-0.633,1.688-3.593,32.053-3.593,32.053s-17.329-7.59-17.759-7.877
					c0,0-3.102,4.68-2.553,6.327c0.549,1.648,21.008,11.534,24.578,8.65c3.57-2.883,6.728-38.61,6.728-38.61L188.974,359.743z"/>
			</g>
			<g>
				<g>
					<path style="fill:#421B36;" d="M155.383,236.56c22.069-10.604,44.157-21.175,66.024-32.191c1.012-0.51,0.122-2.029-0.888-1.52
						c-21.867,11.016-43.955,21.588-66.024,32.191C153.474,235.531,154.366,237.049,155.383,236.56L155.383,236.56z"/>
				</g>
			</g>
			<g>
				<g>
					<path style="fill:#421B36;" d="M160.345,248.1c22.877-9.232,45.112-19.99,67.021-31.308c1.007-0.52,0.118-2.039-0.888-1.52
						c-21.773,11.247-43.866,21.956-66.6,31.13C158.84,246.821,159.293,248.524,160.345,248.1L160.345,248.1z"/>
				</g>
			</g>
			<g>
				<g>
					<path style="fill:#421B36;" d="M168.034,259.158c19.37-9.104,38.74-18.208,58.11-27.312c1.024-0.481,0.132-1.999-0.888-1.52
						c-19.37,9.104-38.74,18.208-58.11,27.312C166.122,258.12,167.014,259.638,168.034,259.158L168.034,259.158z"/>
				</g>
			</g>
			<g>
				<path style="fill:#8380FF;" d="M123.821,203.875c0,0-11.416-7.648-8.632-14.888c2.784-7.24,46.779-25.609,50.12-20.879
					c3.341,4.729,7.518,19.045,7.518,19.045l-47.614,16.722"/>
			</g>
			<g>
				<g>
					<path style="fill:#421B36;" d="M113.931,189.791c1.988,7.613,7.541,13.986,12.902,19.505c0.205,0.211,0.57,0.329,0.856,0.226
						c14.095-5.069,28.191-10.138,42.286-15.207c1.978-0.711,3.956-1.423,5.934-2.134c0.429-0.154,0.774-0.603,0.615-1.083
						c-2.718-8.182-6.302-16.036-10.711-23.445c-0.579-0.973-2.101-0.088-1.52,0.888c4.334,7.281,7.862,14.983,10.534,23.024
						c0.205-0.361,0.41-0.722,0.615-1.082c-14.095,5.069-28.191,10.138-42.286,15.207c-1.978,0.711-3.956,1.423-5.934,2.134
						c0.285,0.075,0.571,0.151,0.856,0.226c-5.152-5.305-10.537-11.408-12.449-18.729
						C115.343,188.228,113.645,188.692,113.931,189.791L113.931,189.791z"/>
				</g>
			</g>
			<g>
				<g>
					<path style="fill:#421B36;" d="M117.651,230.09c24.547-11.344,49.095-22.688,73.642-34.032c1.027-0.475,0.134-1.992-0.888-1.52
						c-24.548,11.344-49.095,22.688-73.642,34.032C115.735,229.045,116.628,230.563,117.651,230.09L117.651,230.09z"/>
				</g>
			</g>
			<g>
				<g>
					<path style="fill:#421B36;" d="M131.78,193.367c0.017-0.057,0.021-0.116,0.028-0.174c0.007-0.054,0.019-0.113,0.019-0.17
						c-0.001-0.115-0.016-0.232-0.047-0.343c-0.03-0.107-0.076-0.211-0.129-0.308c-0.01-0.017-0.02-0.034-0.031-0.049
						c-0.054-0.075-0.11-0.151-0.171-0.22c-0.074-0.083-0.175-0.151-0.261-0.213c-0.087-0.063-0.212-0.105-0.303-0.141
						c-0.018-0.007-0.036-0.014-0.054-0.019c-0.091-0.024-0.188-0.03-0.281-0.041c-0.116-0.013-0.239,0.015-0.35,0.034
						c-0.149,0.042-0.279,0.117-0.388,0.226c-0.109,0.11-0.185,0.239-0.226,0.388c-0.048,0.229-0.047,0.346-0.002,0.573
						c0.021,0.106,0.067,0.212,0.129,0.301c0.044,0.064,0.105,0.153,0.169,0.214c0.007,0.006,0.014,0.012,0.021,0.018
						c0.063,0.052,0.13,0.106,0.198,0.152c0.092,0.063,0.204,0.101,0.308,0.137c0.107,0.037,0.244,0.046,0.346,0.057
						c0.04,0.004,0.081,0.005,0.121,0.001c0.106-0.011,0.235-0.018,0.342-0.056c0.22-0.078,0.3-0.127,0.477-0.275
						c0.085-0.071,0.157-0.165,0.206-0.264c0.029-0.058,0.088-0.175,0.106-0.263c0.001-0.006,0.002-0.011,0.003-0.017
						c0.012-0.077,0.028-0.168,0.033-0.246c0.001-0.013,0.001-0.025,0-0.038c-0.01,0.078-0.021,0.156-0.031,0.234
						c0.032-0.099,0.048-0.208,0.04-0.312c-0.017-0.219-0.04-0.314-0.141-0.51c-0.087-0.169-0.262-0.332-0.425-0.425
						c-0.088-0.05-0.184-0.092-0.282-0.118c-0.007-0.002-0.015-0.003-0.022-0.005c-0.076-0.015-0.168-0.025-0.245-0.033
						c-0.015-0.002-0.03-0.003-0.045-0.002c-0.21,0.011-0.323,0.044-0.508,0.134c-0.014,0.007-0.026,0.013-0.038,0.022
						c-0.062,0.043-0.134,0.097-0.19,0.147c-0.006,0.005-0.011,0.011-0.016,0.017c-0.086,0.08-0.146,0.174-0.182,0.283
						c-0.055,0.105-0.08,0.218-0.076,0.339c-0.005,0.121,0.021,0.234,0.076,0.339c0.036,0.109,0.096,0.204,0.182,0.283
						c0.059,0.046,0.119,0.092,0.178,0.138c0.137,0.08,0.285,0.12,0.444,0.12c0.078-0.01,0.156-0.021,0.234-0.031
						c0.149-0.042,0.279-0.117,0.388-0.226c0.009-0.01,0.018-0.018,0.028-0.027c-0.059,0.046-0.119,0.092-0.178,0.138
						c0.012-0.009,0.025-0.016,0.038-0.022c-0.07,0.03-0.14,0.059-0.21,0.089c0.016-0.006,0.032-0.01,0.049-0.013
						c-0.078,0.01-0.156,0.021-0.234,0.031c0.02-0.002,0.039-0.002,0.059,0.001c-0.078-0.01-0.156-0.021-0.234-0.031
						c0.026,0.004,0.05,0.011,0.074,0.021c-0.07-0.03-0.14-0.059-0.21-0.089c0.024,0.011,0.046,0.024,0.067,0.04
						c-0.059-0.046-0.119-0.092-0.178-0.138c0.018,0.014,0.035,0.03,0.049,0.048c-0.046-0.059-0.092-0.119-0.138-0.178
						c0.012,0.016,0.022,0.033,0.031,0.051c-0.03-0.07-0.059-0.14-0.089-0.21c0.007,0.016,0.011,0.032,0.014,0.049
						c-0.01-0.078-0.021-0.156-0.031-0.234c0.002,0.015,0.002,0.029,0,0.044c0.01-0.078,0.021-0.156,0.031-0.234
						c-0.013,0.093-0.039,0.176-0.04,0.278c0,0.014,0,0.029-0.002,0.043c0.01-0.078,0.021-0.156,0.031-0.234
						c-0.003,0.023-0.009,0.044-0.017,0.065c0.03-0.07,0.059-0.14,0.089-0.21c-0.008,0.018-0.018,0.034-0.03,0.05
						c0.046-0.059,0.092-0.119,0.138-0.178c-0.013,0.017-0.028,0.031-0.045,0.044c0.059-0.046,0.119-0.092,0.178-0.138
						c-0.022,0.016-0.046,0.03-0.071,0.04c0.07-0.03,0.14-0.059,0.21-0.089c-0.034,0.014-0.07,0.023-0.106,0.028
						c0.078-0.01,0.156-0.021,0.234-0.031c-0.048,0.006-0.097,0.006-0.145,0c0.078,0.01,0.156,0.021,0.234,0.031
						c-0.046-0.006-0.09-0.018-0.133-0.036c0.07,0.029,0.14,0.059,0.21,0.089c-0.03-0.013-0.058-0.029-0.083-0.048
						c0.059,0.046,0.119,0.092,0.178,0.138c-0.02-0.016-0.038-0.033-0.053-0.053c0.046,0.059,0.092,0.119,0.138,0.178
						c-0.012-0.016-0.021-0.032-0.029-0.05c0.029,0.07,0.059,0.14,0.089,0.21c-0.008-0.02-0.014-0.041-0.017-0.062
						c0.011,0.078,0.021,0.156,0.032,0.234c-0.002-0.021-0.002-0.043,0.001-0.064c-0.01,0.078-0.021,0.156-0.031,0.234
						c0.001-0.008,0.003-0.017,0.004-0.025c-0.205,0.205-0.41,0.41-0.615,0.615c0.007-0.001,0.013-0.002,0.02-0.003
						c-0.078,0.01-0.156,0.021-0.234,0.031c0.032-0.004,0.064-0.003,0.096,0.001c-0.078-0.01-0.156-0.021-0.234-0.031
						c0.035,0.005,0.069,0.015,0.101,0.028c-0.07-0.03-0.14-0.059-0.21-0.089c0.039,0.017,0.075,0.038,0.108,0.064
						c-0.059-0.046-0.119-0.092-0.178-0.138c0.034,0.027,0.063,0.057,0.09,0.09c-0.046-0.059-0.092-0.119-0.138-0.178
						c0.026,0.034,0.047,0.07,0.064,0.109c-0.03-0.07-0.059-0.14-0.089-0.21c0.015,0.036,0.026,0.073,0.031,0.111
						c-0.01-0.078-0.021-0.156-0.031-0.234c0.005,0.035,0.005,0.07,0.001,0.105c0.01-0.078,0.021-0.156,0.031-0.234
						c-0.003,0.019-0.007,0.038-0.013,0.057c-0.037,0.117-0.042,0.234-0.016,0.351c0.005,0.117,0.04,0.226,0.104,0.327
						c0.055,0.103,0.131,0.185,0.227,0.247c0.085,0.078,0.185,0.13,0.299,0.158c0.078,0.01,0.156,0.021,0.234,0.031
						c0.159,0,0.307-0.04,0.444-0.12c0.059-0.046,0.119-0.092,0.178-0.138C131.663,193.645,131.738,193.516,131.78,193.367
						L131.78,193.367z"/>
				</g>
			</g>
			<g>
				<g>
					<path style="fill:#421B36;" d="M156.303,179.917c-0.024-0.01-0.048-0.018-0.073-0.024c-0.011-0.003-0.023-0.004-0.034-0.006
						c-0.086-0.014-0.175-0.029-0.263-0.034c-0.024-0.002-0.048-0.001-0.071,0.002c-0.097,0.009-0.199,0.018-0.294,0.043
						c-0.058,0.015-0.114,0.043-0.168,0.066c-0.055,0.023-0.113,0.044-0.165,0.074c-0.021,0.012-0.041,0.026-0.061,0.041
						c-0.077,0.057-0.157,0.114-0.228,0.18c-0.089,0.083-0.161,0.187-0.231,0.285c-0.03,0.042-0.055,0.087-0.076,0.133
						c-0.049,0.109-0.107,0.225-0.133,0.344c-0.021,0.097-0.032,0.199-0.042,0.297c-0.002,0.024-0.004,0.048-0.004,0.073
						c0.002,0.122,0.016,0.248,0.052,0.365c0.029,0.091,0.07,0.181,0.111,0.267c0.011,0.022,0.023,0.042,0.037,0.062
						c0.055,0.077,0.112,0.16,0.18,0.227c0.008,0.009,0.018,0.017,0.027,0.025c0.055,0.048,0.224,0.164,0.186,0.144
						c0.07,0.03,0.14,0.059,0.21,0.089c0.078,0.011,0.156,0.021,0.234,0.032c0.068,0.001,0.179-0.022,0.246-0.033
						c0.008-0.001,0.017-0.002,0.025-0.004c0.014-0.003,0.028-0.007,0.042-0.011c0.081-0.026,0.161-0.065,0.239-0.099
						c0.015-0.007,0.03-0.013,0.045-0.021c0.115-0.063,0.227-0.147,0.311-0.248c0.065-0.077,0.133-0.157,0.185-0.245
						c0.052-0.088,0.089-0.189,0.124-0.283c0.047-0.126,0.065-0.27,0.063-0.404c0-0.017-0.002-0.033-0.004-0.049
						c-0.01-0.087-0.018-0.178-0.037-0.265c-0.003-0.014-0.007-0.028-0.012-0.042c-0.029-0.081-0.065-0.166-0.102-0.243
						c-0.03-0.063-0.075-0.114-0.118-0.169c-0.044-0.057-0.081-0.111-0.135-0.157c-0.181-0.155-0.316-0.235-0.544-0.313
						c-0.03-0.01-0.061-0.017-0.093-0.022c-0.086-0.014-0.22-0.041-0.323-0.035c-0.091,0.005-0.185,0.02-0.275,0.036
						c-0.016,0.003-0.031,0.006-0.046,0.01c-0.104,0.028-0.204,0.074-0.298,0.125c-0.103,0.055-0.185,0.131-0.247,0.227
						c-0.078,0.085-0.13,0.185-0.158,0.299c-0.037,0.117-0.042,0.234-0.016,0.351c0.005,0.117,0.04,0.226,0.104,0.327
						c0.121,0.188,0.302,0.353,0.526,0.404c0.078,0.01,0.156,0.021,0.234,0.032c0.159-0.001,0.307-0.041,0.444-0.12
						c0.014-0.008,0.028-0.014,0.043-0.021c-0.07,0.03-0.14,0.059-0.21,0.089c0.033-0.013,0.067-0.021,0.103-0.026
						c-0.078,0.011-0.156,0.021-0.234,0.031c0.04-0.004,0.079-0.004,0.118,0.001c-0.078-0.01-0.156-0.021-0.234-0.031
						c0.044,0.007,0.086,0.018,0.126,0.035c-0.07-0.03-0.14-0.059-0.21-0.089c0.04,0.018,0.078,0.04,0.113,0.067
						c-0.059-0.046-0.119-0.092-0.178-0.138c0.028,0.022,0.053,0.047,0.075,0.075c-0.046-0.059-0.092-0.119-0.138-0.178
						c0.022,0.028,0.04,0.059,0.054,0.091c-0.029-0.07-0.059-0.14-0.089-0.21c0.012,0.031,0.021,0.062,0.026,0.095
						c-0.01-0.078-0.021-0.156-0.031-0.234c0.005,0.037,0.005,0.074,0,0.111c0.01-0.078,0.021-0.156,0.031-0.234
						c-0.006,0.041-0.017,0.081-0.033,0.12c0.029-0.07,0.059-0.14,0.089-0.21c-0.017,0.039-0.038,0.074-0.062,0.108
						c0.046-0.059,0.092-0.119,0.138-0.178c-0.026,0.033-0.055,0.063-0.087,0.089c0.059-0.046,0.119-0.092,0.178-0.138
						c-0.033,0.025-0.068,0.046-0.107,0.062c0.07-0.03,0.14-0.059,0.21-0.089c-0.031,0.012-0.063,0.021-0.096,0.025
						c0.078-0.01,0.156-0.021,0.234-0.031c-0.004,0.001-0.008,0.001-0.012,0.001c0.207,0.086,0.415,0.172,0.622,0.258
						c-0.026-0.022-0.05-0.046-0.071-0.072c0.046,0.059,0.092,0.119,0.138,0.178c-0.021-0.028-0.038-0.059-0.052-0.091
						c0.03,0.07,0.059,0.14,0.089,0.21c-0.014-0.035-0.023-0.072-0.029-0.109c0.01,0.078,0.021,0.156,0.031,0.234
						c-0.006-0.048-0.005-0.096,0.001-0.145c-0.01,0.078-0.021,0.156-0.031,0.234c0.009-0.06,0.025-0.118,0.049-0.174
						c-0.03,0.07-0.059,0.14-0.089,0.21c0.026-0.06,0.059-0.115,0.099-0.167c-0.046,0.059-0.092,0.119-0.138,0.178
						c0.036-0.045,0.075-0.086,0.12-0.121c-0.059,0.046-0.119,0.092-0.178,0.138c0.039-0.03,0.08-0.055,0.125-0.074
						c-0.07,0.03-0.14,0.059-0.21,0.089c0.038-0.016,0.078-0.026,0.119-0.032c-0.078,0.01-0.156,0.021-0.234,0.031
						c0.035-0.004,0.07-0.004,0.105,0.001c-0.078-0.01-0.156-0.021-0.234-0.032c0.037,0.006,0.072,0.016,0.107,0.03
						c0.117,0.037,0.234,0.042,0.351,0.016c0.117-0.005,0.226-0.04,0.327-0.104c0.103-0.055,0.185-0.131,0.247-0.227
						c0.078-0.085,0.13-0.185,0.158-0.299c0.01-0.078,0.021-0.156,0.031-0.234c-0.001-0.159-0.041-0.307-0.12-0.444
						c-0.046-0.059-0.092-0.119-0.138-0.178C156.581,180.034,156.452,179.958,156.303,179.917L156.303,179.917z"/>
				</g>
			</g>
		</g>
		<g>
			<g>
				<g>
					<g>
						<path style="fill:#FFBFBF;" d="M64.831,272.436c0,0-5.842-5.117-5.802-9.828c0.052-6.104,7.933-20.447,14.015-21.432
							c6.082-0.985,8.335,6.319,6.395,9.037c-1.94,2.717-7.944,8.402-9.086,11.511c-1.035,2.817,0.656,3.922,0.656,3.922
							s11.236-12.509,17.488-10.37c6.253,2.139,3.568,7.609,3.568,7.609s9.585,2.446,3.712,12.036c0,0,2.845,4.283,0.867,8.7
							c-1.978,4.417-9.513,11.334-9.513,11.334s2.89,8.766,1.719,9.703c-3.91,3.129-18.223-4.992-16.988-11.065
							c0,0-4.97-4.95-4.446-9.679l0.53-2.248C67.947,281.665,62.47,277.004,64.831,272.436z"/>
					</g>
				</g>
			</g>
			<g>
				<g>
					<path style="fill:#421B36;" d="M96.24,274.796c-1.847-1.814-4.397-1.077-6.348,0.151c-2.484,1.564-4.836,3.389-7.063,5.296
						c-4.442,3.804-8.211,8.25-11.591,13.007c-0.531,0.747,0.725,1.425,1.251,0.684c2.874-4.043,6.054-7.862,9.707-11.228
						c1.857-1.711,3.822-3.298,5.869-4.775c1.799-1.297,5.049-4.208,7.196-2.099C95.915,276.475,96.895,275.44,96.24,274.796
						L96.24,274.796z"/>
				</g>
			</g>
			<g>
				<g>
					<path style="fill:#421B36;" d="M68.112,282.213c3.489-3.895,7.138-7.643,10.954-11.219c1.874-1.757,3.782-3.482,5.738-5.148
						c1.682-1.433,4.074-3.459,6.429-2.461c0.838,0.355,1.53-0.893,0.684-1.251c-1.942-0.823-3.839-0.298-5.582,0.769
						c-2.328,1.425-4.343,3.481-6.353,5.309c-4.525,4.115-8.826,8.467-12.907,13.023C66.464,281.916,67.497,282.899,68.112,282.213
						L68.112,282.213z"/>
				</g>
			</g>
			<g>
				<g>
					<path style="fill:#421B36;" d="M65.61,273.077c1.759-3.75,4.49-6.976,7.921-9.301c0.757-0.513,0.013-1.73-0.75-1.213
						c-3.627,2.457-6.56,5.861-8.421,9.829C63.971,273.22,65.219,273.91,65.61,273.077L65.61,273.077z"/>
				</g>
			</g>
			<g>
				<g>
					<path style="fill:#421B36;" d="M67.585,245.404c0.922,1.575,2.81,2.561,4.635,2.319c1.881-0.249,3.454-1.625,3.975-3.446
						c0.253-0.885-1.132-1.226-1.384-0.345c-0.348,1.218-1.449,2.214-2.717,2.379c-1.316,0.171-2.633-0.524-3.296-1.656
						C68.335,243.863,67.12,244.611,67.585,245.404L67.585,245.404z"/>
				</g>
			</g>
			<g>
				<g>
					<path style="fill:#421B36;" d="M83.602,280.73c1.97,1.843,4.835,2.605,7.453,1.905c2.622-0.701,4.694-2.831,5.475-5.403
						c0.267-0.881-1.118-1.22-1.384-0.345c-0.637,2.101-2.364,3.809-4.492,4.38c-2.133,0.572-4.473-0.077-6.073-1.573
						C83.911,279.067,82.929,280.101,83.602,280.73L83.602,280.73z"/>
				</g>
			</g>
			<g>
				<g>
					<path style="fill:#421B36;" d="M80.578,268.471c1.826,2.073,4.985,2.302,7.402,1.222c2.88-1.287,4.558-4.213,5.57-7.063
						c0.308-0.866-1.079-1.202-1.384-0.345c-0.848,2.388-2.251,4.883-4.615,6.044c-1.947,0.956-4.51,0.79-5.994-0.895
						C80.951,266.747,79.975,267.786,80.578,268.471L80.578,268.471z"/>
				</g>
			</g>
			<g>
				<g>
					<path style="fill:#421B36;" d="M78.783,260.369c1.662,1.206,3.829,1.624,5.826,1.159c2.047-0.477,3.813-1.932,4.743-3.805
						c0.408-0.821-0.842-1.508-1.251-0.684c-0.775,1.561-2.186,2.724-3.893,3.121c-1.652,0.385-3.384-0.057-4.741-1.041
						c-0.314-0.228-0.796-0.022-0.968,0.283C78.292,259.772,78.473,260.145,78.783,260.369L78.783,260.369z"/>
				</g>
			</g>
		</g>
		<g>
			<g>
				<g>
					<g>
						<path style="fill:#8380FF;" d="M239.87,266.653l-60.732,56.749l-0.832,0.773l-0.088,0.087c0,0-4.391,1.867-8.738,3.472
							c-3.443,1.255-6.842,2.349-7.994,2.217c-1.357-0.146-0.015-4.187,1.707-8.199c1.605-3.706,3.516-7.396,3.924-8.009
							c0.029-0.058,0.102-0.131,0.204-0.233c0.146-0.175,0.394-0.467,0.759-0.832c6.857-7.119,47.748-45.749,60.79-57.741
							c3.72-3.414,9.716-2.713,12.356,1.576c0.044,0.058,0.073,0.117,0.102,0.175C243.255,259.913,242.598,264.056,239.87,266.653z"
							/>
					</g>
					<g>
						<g>
							<path style="fill:#FFFFFF;" d="M172.241,315.578c15.48-15.245,31.83-29.571,47.547-44.567
								c4.123-3.933,8.199-7.915,12.181-11.991c0.792-0.811-0.451-2.056-1.245-1.245c-14.973,15.324-31.107,29.468-46.733,44.11
								c-4.377,4.102-8.721,8.238-12.995,12.447C170.188,315.13,171.433,316.374,172.241,315.578L172.241,315.578z"/>
						</g>
					</g>
					<g>
						<g>
							<path style="fill:#FFFFFF;" d="M178.26,319.022c19.088-18.796,39.669-36.036,58.397-55.201
								c0.792-0.811-0.451-2.056-1.245-1.245c-18.728,19.165-39.309,36.405-58.397,55.201
								C176.208,318.574,177.452,319.818,178.26,319.022L178.26,319.022z"/>
						</g>
					</g>
					<g>
						<path style="fill:#A0D2F4;" d="M179.132,323.408l-0.831,0.773c0,0-14.136,5.996-16.733,5.69
							c-2.597-0.292,4.77-14.939,5.631-16.208c0.102-0.146,0.394-0.481,0.875-0.977
							C171.794,313.503,176.856,316.026,179.132,323.408z"/>
					</g>
					<g>
						<path style="fill:#8380FF;" d="M169.481,327.735c-3.443,1.255-6.842,2.349-7.994,2.217c-1.357-0.146-0.015-4.187,1.707-8.199
							c0.015,0,0.029,0,0.044,0.014c1.532,0.263,5.296,1.503,6.229,5.908C169.481,327.691,169.481,327.72,169.481,327.735z"/>
					</g>
					<g>
						<g>
							<path style="fill:#421B36;" d="M168.601,313.534c4.085,1.703,7.399,5.209,8.907,9.363c0.162,0.447,0.598,0.748,1.083,0.615
								c0.431-0.118,0.778-0.634,0.615-1.083c-1.74-4.794-5.435-8.632-10.136-10.592c-0.439-0.183-0.968,0.198-1.083,0.615
								C167.847,312.959,168.161,313.351,168.601,313.534L168.601,313.534z"/>
						</g>
					</g>
					<g>
						<g>
							<path style="fill:#421B36;" d="M228.397,257.279c4.085,1.703,7.399,5.209,8.907,9.363c0.162,0.447,0.598,0.748,1.083,0.615
								c0.431-0.118,0.778-0.634,0.615-1.082c-1.741-4.794-5.435-8.632-10.136-10.592c-0.439-0.183-0.968,0.197-1.083,0.615
								C227.643,256.704,227.956,257.096,228.397,257.279L228.397,257.279z"/>
						</g>
					</g>
				</g>
				<g>
					<g>
						<path style="fill:#FFBFBF;" d="M185.353,298.514c-4.142,3.116-10.268,0.465-10.449-4.716
							c-0.002-0.054-0.003-0.107-0.004-0.162c-0.056-3.634,5.209-10.41,19.32-17.327c9.566-4.689,27.844,6.827,27.844,6.827
							l65.732,52.701l-25.898,20.349l-14.614-21.089l0,0c-5.563,1.95-11.717-0.123-15.041-4.991c-0.711-1.041-1.29-1.74-1.55-1.718
							c-0.991,0.082-11.354,7.422-17.745-3.518c0,0-12.092-1.493-11.262-9.54c0,0-8.584-1.284-5.732-9
							c2.852-7.716,13.752-14.602,13.752-14.602s-9.263-3.223-12.886-1.926C194.14,290.76,190.004,295.015,185.353,298.514z"/>
					</g>
					<g>
						<g>
							<path style="fill:#421B36;" d="M214.974,324.161c1.412-5.554,5.163-10.324,10.221-13.016c1-0.533,0.112-2.052-0.888-1.52
								c-5.439,2.896-9.512,8.097-11.03,14.068C212.997,324.792,214.694,325.26,214.974,324.161L214.974,324.161z"/>
						</g>
					</g>
					<g>
						<g>
							<path style="fill:#421B36;" d="M229.905,328.47c2.247-0.673,3.9-2.699,4.105-5.035c0.202-2.302-1.25-4.668-3.357-5.585
								c-0.435-0.19-0.944-0.128-1.204,0.316c-0.218,0.372-0.122,1.013,0.316,1.204c1.551,0.676,2.595,2.225,2.494,3.937
								c-0.093,1.589-1.323,3.017-2.823,3.466C228.355,327.097,228.816,328.796,229.905,328.47L229.905,328.47z"/>
						</g>
					</g>
					<g>
						<g>
							<path style="fill:#421B36;" d="M202.807,316.059c2.449-6.56,7.563-11.93,13.929-14.811c1.03-0.466,0.137-1.983-0.888-1.52
								c-6.795,3.075-12.134,8.889-14.738,15.863C200.713,316.654,202.413,317.112,202.807,316.059L202.807,316.059z"/>
						</g>
					</g>
					<g>
						<g>
							<path style="fill:#421B36;" d="M179.204,299.305c1.968-1.384,3.244-3.508,3.486-5.909c0.241-2.396-0.746-4.851-2.471-6.505
								c-0.818-0.784-2.064,0.458-1.245,1.244c2.807,2.692,2.566,7.383-0.658,9.65C177.396,298.432,178.274,299.958,179.204,299.305
								L179.204,299.305z"/>
						</g>
					</g>
					<g>
						<g>
							<path style="fill:#421B36;" d="M203.983,297.35c3.289-3.342,7.239-6.012,11.591-7.766c0.444-0.179,0.746-0.585,0.615-1.082
								c-0.111-0.42-0.642-0.792-1.083-0.615c-4.642,1.871-8.855,4.648-12.368,8.219
								C201.943,296.914,203.187,298.159,203.983,297.35L203.983,297.35z"/>
						</g>
					</g>
				</g>
			</g>
			<g>
				<path style="fill:#8380FF;" d="M354.565,245.88c5.091,1.665,18.185,7.163,27.349,30.455
					c8.063,20.493,19.173,104.706,4.72,126.371c-8.135,12.195-30.626,16.786-41.33,15.502
					c-10.704-1.284-91.573-29.755-91.457-50.307c0.116-20.552,23.457-47.344,23.457-47.344l62.215,33.347
					c0,0-4.143-36.531-8.424-56.655C326.813,277.126,329.982,237.842,354.565,245.88z"/>
			</g>
			<g>
				<path style="fill:#A0D2F4;" d="M308.295,337.797c-0.628,1.718-20.5,59.812-20.5,59.812s48.039,19.936,51.388,19.166
					c9.307-2.141,7.195-58.912,7.195-58.912L308.295,337.797z"/>
			</g>
			<g>
				<g>
					<path style="fill:#421B36;" d="M329.893,288.359c8.6-13.548,19.516-25.01,33.817-32.492c0.944-0.494,0.115-1.854-0.826-1.413
						c-14.729,6.9-25.573,19.747-33.857,33.399C328.69,288.407,329.548,288.902,329.893,288.359L329.893,288.359z"/>
				</g>
			</g>
			<g>
				<g>
					<path style="fill:#421B36;" d="M276.434,322.504c25.348,13.019,50.766,26.088,76.411,38.511
						c0.879,0.426,1.654-0.864,0.773-1.322c-25.289-13.145-50.962-25.721-76.551-38.271
						C276.348,321.069,275.713,322.134,276.434,322.504L276.434,322.504z"/>
				</g>
			</g>
			<g>
				<g>
					<path style="fill:#421B36;" d="M339.352,353.958c6.686-0.963,13.31-2.334,20.025-3.248c0.984-0.134,0.717-1.693-0.23-1.698
						c-6.592-0.037-14.238,1.121-20.283,3.788C338.147,353.116,338.711,354.05,339.352,353.958L339.352,353.958z"/>
				</g>
			</g>
			<g>
				<g>
					<path style="fill:#421B36;" d="M365.762,351.338c1.087,0,1.089-1.69,0-1.69C364.675,349.648,364.673,351.338,365.762,351.338
						L365.762,351.338z"/>
				</g>
			</g>
			<g>
				<g>
					<path style="fill:#421B36;" d="M330.823,306.24c2.689,16.04,5.424,32.08,8.476,48.055c0.235,1.23,2.086,0.703,1.871-0.516
						c-2.815-15.999-5.948-31.946-9.125-47.876C331.884,305.096,330.69,305.447,330.823,306.24L330.823,306.24z"/>
				</g>
			</g>
		</g>
		<g>
			<g>
				<path style="fill:#421B36;" d="M355.455,172.234c-1.034-3.596-5.154-5.677-6.084-9.301c-0.491-1.912,0.003-3.947-0.296-5.898
					c-0.534-3.496-3.584-6.185-6.926-7.341c-3.343-1.156-6.969-1.067-10.505-0.964c0.054-8.452-5.884-15.86-12.741-20.802
					c-3.51-2.53-7.434-4.658-11.714-5.293c-4.28-0.634-8.967,0.415-12.01,3.49c-3.717-3.737-9.195-5.642-14.428-5.019
					c-5.234,0.623-10.111,3.76-12.848,8.264c-5.372-3.118-13.064-1.203-16.347,4.069c-3.283,5.273-1.607,13.021,3.562,16.465
					c-3.773,1.81-5.318,6.775-4.074,10.771c1.244,3.995,4.707,6.992,8.539,8.675c3.831,1.683,8.047,2.238,12.197,2.776l51.14,57.305
					c14.646-8.998,25.46-34.219,30.745-43.163C355.564,183.054,356.487,175.822,355.455,172.234z"/>
			</g>
			<g>
				<g>
					<path style="fill:#421B36;" d="M328.88,150.852c6.244-5.231,12.747-7.665,20.432-9.938c0.943-0.279,0.818-1.895-0.242-1.789
						c-7.827,0.78-15.44,5.564-20.666,11.251C328.107,150.7,328.551,151.128,328.88,150.852L328.88,150.852z"/>
				</g>
			</g>
			<g>
				<g>
					<path style="fill:#421B36;" d="M326.343,153.023c3.926-6.344,6.781-12.186,8.311-19.577c0.279-1.349-1.845-1.88-2.037-0.561
						c-0.971,6.693-3.114,14.118-6.628,19.932C325.853,153.043,326.205,153.247,326.343,153.023L326.343,153.023z"/>
				</g>
			</g>
			<g>
				<path style="fill:#FFBFBF;" d="M333.603,169.429c-3.744-8.719-10.205-14.959-17.878-18.612
					c-14.959-7.122-34.434-4.332-46.75,9.251c-0.514,0.587-1.028,1.156-1.487,1.762c-3.946,4.938-7.103,11.38-9.618,19.621
					c-0.918,3.083-1.762,6.424-2.515,10.021c-0.147,0.624-0.275,1.267-0.404,1.909c-0.275,1.45-0.532,2.845-0.661,4.203
					c-4.24,31.938,27.916,43.362,35.148,44.516l10.767,21.098l28.984-17.461c0,0-6.491-15.665-6.271-16.307
					c0.018-0.018,0.018-0.037,0.037-0.055c0.661-1.78,2.092-5.653,3.763-10.646c0-0.018,0.018-0.037,0.018-0.055
					c0.367-1.138,0.771-2.331,1.156-3.579c0.184-0.569,0.367-1.12,0.532-1.671c0.771-2.496,1.542-5.102,2.276-7.801
					c0.312-1.046,0.587-2.074,0.844-3.139c0.037-0.11,0.055-0.257,0.11-0.367c0.661-2.607,1.285-5.213,1.835-7.782
					c0.037-0.221,0.092-0.441,0.11-0.643c0.147-0.624,0.257-1.248,0.367-1.835c0.606-3.12,1.028-6.13,1.266-8.957
					C335.603,178.661,335.255,173.302,333.603,169.429z"/>
			</g>
			<g>
				<g>
					<path style="fill:#421B36;" d="M288.616,241.494c3.607,7.057,6.821,14.365,10.873,21.189c0.559,0.942,1.86,0.118,1.436-0.839
						c-3.209-7.254-7.873-13.789-11.523-20.81C289.131,240.514,288.349,240.973,288.616,241.494L288.616,241.494z"/>
				</g>
			</g>
			<g>
				<g>
					<g>
						<g>
							<g>
								<g>
									<g>
										<g>
											<path style="fill:#421B36;" d="M276.238,176.372c-0.346,1.44,0.426,2.861,1.725,3.173
												c1.299,0.312,2.632-0.603,2.978-2.044c0.346-1.44-0.426-2.861-1.725-3.173
												C277.917,174.017,276.584,174.932,276.238,176.372z"/>
										</g>
									</g>
									<g>
										<g>
											<path style="fill:#421B36;" d="M301.657,181.161c-0.346,1.44,0.427,2.861,1.725,3.173
												c1.298,0.312,2.632-0.603,2.978-2.044c0.346-1.441-0.426-2.861-1.725-3.173
												C303.336,178.805,302.003,179.72,301.657,181.161z"/>
										</g>
									</g>
									<g>
										<g>
											<g>
												<path style="fill:#421B36;" d="M318.411,171.487c-1.999-1.969-4.988-3.451-7.616-4.331
													c-2.661-0.891-5.216-0.674-7.922-1.029c-1.476-0.193-1.842-2.179-0.314-2.662c6.402-2.025,13.056,2.382,16.946,6.965
													C320.135,171.173,319.114,172.181,318.411,171.487L318.411,171.487z"/>
											</g>
										</g>
									</g>
									<g>
										<g>
											<g>
												<path style="fill:#421B36;" d="M277.142,159.437c5.539-3.815,12.969-1.085,14.794,5.275
													c2.586,9.015-4.22,20.756-10.632,26.621c-1.13,1.034-3.242-0.449-2.197-1.757c3.87-4.842,7.791-9.691,9.567-15.769
													c1.223-4.183,1.773-8.665-1.83-11.659c-2.457-2.041-6.128-2.432-9.272-1.639
													C276.901,160.678,276.617,159.799,277.142,159.437L277.142,159.437z"/>
											</g>
										</g>
									</g>
									<g>
										<g>
											<g>
												<path style="fill:#421B36;" d="M280.139,242.543c0.04,0.001,0.06,0.021,0.1,0.022c2.358,0.401,4.779,0.604,7.184,0.525
													c4.732-0.159,9.382-1.381,13.217-4.161c0.527-0.372,1.035-0.763,1.523-1.196c0.102-0.098-0.036-0.221-0.137-0.183
													c-6.842,2.848-14.226,3.462-21.526,2.635c-0.2-0.023-0.36-0.006-0.522,0.071
													C279.09,240.641,279,242.343,280.139,242.543z"/>
											</g>
										</g>
									</g>
									<g>
										<g>
											<g>
												<path style="fill:#421B36;" d="M283.076,200.048c4.997,0.006,8.91-0.541,12.518-4.269
													c1.68-1.737,4.164,0.908,2.584,2.675c-3.688,4.124-10.848,5.953-15.233,1.897
													C282.827,200.242,282.928,200.048,283.076,200.048L283.076,200.048z"/>
											</g>
										</g>
									</g>
								</g>
								<g>
									<g>
										<path style="fill:#FFBFBF;" d="M331.16,194.315c4.281-1.709,9.669-0.023,11.295,1.923c1.625,1.946,2.304,4.55,2.321,7.086
											c0.027,4.215-1.837,8.55-5.332,10.906c-3.495,2.357-10.994,2.272-14.068-0.613L331.16,194.315z"/>
									</g>
								</g>
								<g>
									<g>
										<g>
											<path style="fill:#421B36;" d="M337.854,206.151c-0.59-0.64-2.133-1.271-2.949-1.473
												c-1.343-0.332-2.311,0.133-3.444,0.793c-1.224,0.714-2.432-0.974-1.457-1.958c1.291-1.303,3.423-1.756,5.178-1.282
												c0.843,0.228,1.72,0.704,2.303,1.365c0.662,0.752,0.575,1.43,0.765,2.332C338.297,206.15,338.02,206.331,337.854,206.151
												L337.854,206.151z"/>
										</g>
									</g>
								</g>
							</g>
							<g>
								<g>
									<path style="fill:#421B36;" d="M315.301,147.608c7.431-1.362,18.231,4.862,23.33,10.436l-2.519,23.18
										c-0.047,3.088-0.5,6.428-1.484,10.039c0,0-3.374,10.947-7.516,9.764c-3.13-0.894-1.144-21.839-1.144-21.839
										c-2.566-2.791-10.792,3.836-10.225-29.047c0,0,0.329,0.146,0.878,0.426L315.301,147.608z"/>
								</g>
							</g>
						</g>
						<g>
							<g>
								<g>
									<path style="fill:#421B36;" d="M317.586,150.272c-0.015-0.038-0.018-0.081-0.034-0.118c0.026-0.047,0.06-0.09,0.085-0.137
										L317.586,150.272z"/>
								</g>
							</g>
							<g>
								<g>
									<path style="fill:#421B36;" d="M316.678,154.791l0.908-4.519C318.196,151.814,317.969,153.76,316.678,154.791z"/>
								</g>
							</g>
						</g>
						<g>
							<g>
								<g>
									<path style="fill:#421B36;" d="M266.092,152.316c-3.381-1.654-7.441-1.587-10.159,1.271
										c-2.731,2.872-2.365,7.163-0.044,10.154c0.712,0.917-0.444,2.189-1.315,1.315c-3.457-3.47-3.628-8.935-0.257-12.555
										c3.221-3.459,8.572-3.713,11.968-0.436C266.422,152.197,266.249,152.393,266.092,152.316L266.092,152.316z"/>
								</g>
							</g>
						</g>
					</g>
				</g>
				<g>
					<path style="fill:#421B36;" d="M261.053,159.25c5.02,2.913,11.218,3.723,16.818,2.198c5.6-1.525,10.531-5.367,13.38-10.424
						c8.908,4.321,19.87,4.126,28.617-0.511c-3.306-3.273-7.724-5.259-12.267-6.26c-4.543-1.001-9.239-1.075-13.889-0.95
						c-5.83,0.157-11.724,0.636-17.244,2.516c-5.52,1.881-10.687,5.294-13.728,10.27c0.383,0.049,0.767,0.098,1.15,0.147"/>
				</g>
			</g>
			<g>
				<g>
					<path style="fill:#421B36;" d="M296.969,127.968c-2.571-7.748-10.466-12.745-18.66-11.827
						c-9.699,1.086-16.168,10.277-15.901,19.609c0.044,1.55,2.439,1.56,2.416,0c-0.126-8.346,5.375-16.127,13.945-17.329
						c7.501-1.052,14.204,3.411,17.971,9.643C296.811,128.183,297.015,128.107,296.969,127.968L296.969,127.968z"/>
				</g>
			</g>
		</g>
	</g>
</g>
</svg>
